#N canvas -9 -9 1920 976 12;
#X obj 38 54 notein 1;
#X obj 38 202 out~;
#X obj 38 73 mono;
#N canvas 1042 124 450 300 sens 0;
#X obj 108 71 sel 0;
#X obj 108 95 t 0;
#X obj 108 123 outlet;
#X obj 108 48 inlet;
#X obj 193 49 inlet;
#X text 264 86 Choose lower limit for note velocity.;
#X obj 146 96 rescale 80 127;
#X connect 0 0 1 0;
#X connect 0 1 6 0;
#X connect 1 0 2 0;
#X connect 3 0 0 0;
#X connect 4 0 6 1;
#X connect 6 0 2 0;
#X restore 119 151 pd sens;
#N canvas -9 -9 1920 976 makechord 0;
#X obj 281 315 inlet;
#X obj 281 339 t f f f f f f f;
#X obj 400 13 ctlin 7 1;
#X obj 400 65 int;
#X obj 295 380 +;
#X obj 403 381 +;
#X obj 366 381 +;
#X obj 331 381 +;
#X obj 281 553 outlet~;
#X obj 280 520 *~;
#X obj 389 429 inlet;
#X obj 389 453 / 127;
#X obj 389 476 sig~;
#X obj 408 90 s $-chord-type;
#N canvas 999 135 736 557 synth 0;
#X obj 46 177 mtof;
#X obj 105 177 mtof;
#X obj 166 177 mtof;
#X obj 229 177 mtof;
#X obj 291 177 mtof;
#X obj 46 201 bl.tri~;
#X obj 105 201 bl.tri~;
#X obj 166 200 bl.tri~;
#X obj 229 201 bl.tri~;
#X obj 291 201 bl.tri~;
#X obj 47 402 outlet~;
#X obj 46 153 inlet;
#X obj 105 153 inlet;
#X obj 166 154 inlet;
#X obj 229 154 inlet;
#X obj 291 154 inlet;
#X connect 0 0 5 0;
#X connect 1 0 6 0;
#X connect 2 0 7 0;
#X connect 3 0 8 0;
#X connect 4 0 9 0;
#X connect 5 0 10 0;
#X connect 6 0 10 0;
#X connect 7 0 10 0;
#X connect 8 0 10 0;
#X connect 9 0 10 0;
#X connect 11 0 0 0;
#X connect 12 0 1 0;
#X connect 13 0 2 0;
#X connect 14 0 3 0;
#X connect 15 0 4 0;
#X restore 281 429 pd synth;
#X f 13;
#X obj 400 120 sel 0 1 2 3 4 5 6 7 8 9;
#X obj 1138 164 4 7 10 20;
#X msg 1052 166 4 7 10 21;
#X obj 400 41 rescale 0 9;
#X obj 388 500 adsr~ 50 20 0.8 20;
#X msg 897 168 4 7 9 14;
#X obj 400 338 unpack f f f f;
#X msg 400 168 3 6 9 12;
#X msg 479 168 3 6 10 12;
#X msg 557 168 3 7 10 14;
#X msg 648 167 3 7 10 17;
#X msg 733 168 3 7 9 12;
#X msg 814 168 3 7 14 17;
#X msg 974 167 4 7 11 14;
#X text 510 14 Knob selects chord type;
#X text 1234 157 Chord formulas by distance from root in semitones.
;
#X connect 0 0 1 0;
#X connect 1 0 14 0;
#X connect 1 1 4 0;
#X connect 1 2 7 0;
#X connect 1 3 6 0;
#X connect 1 4 5 0;
#X connect 2 0 18 0;
#X connect 3 0 13 0;
#X connect 3 0 15 0;
#X connect 4 0 14 1;
#X connect 5 0 14 4;
#X connect 6 0 14 3;
#X connect 7 0 14 2;
#X connect 9 0 8 0;
#X connect 10 0 11 0;
#X connect 11 0 12 0;
#X connect 12 0 19 0;
#X connect 14 0 9 0;
#X connect 15 0 22 0;
#X connect 15 1 23 0;
#X connect 15 2 24 0;
#X connect 15 3 25 0;
#X connect 15 4 26 0;
#X connect 15 5 27 0;
#X connect 15 6 20 0;
#X connect 15 7 28 0;
#X connect 15 8 17 0;
#X connect 15 9 16 0;
#X connect 16 0 21 0;
#X connect 17 0 21 0;
#X connect 18 0 3 0;
#X connect 19 0 9 1;
#X connect 20 0 21 0;
#X connect 21 0 4 1;
#X connect 21 1 7 1;
#X connect 21 2 6 1;
#X connect 21 3 5 1;
#X connect 22 0 21 0;
#X connect 23 0 21 0;
#X connect 24 0 21 0;
#X connect 25 0 21 0;
#X connect 26 0 21 0;
#X connect 27 0 21 0;
#X connect 28 0 21 0;
#X restore 38 175 pd makechord;
#X obj 165 80 vsl 15 64 1 127 0 0 empty empty empty 0 -9 0 10 -262144
-1 -1 3900 1;
#X obj 456 34 r $-chord-type;
#X obj 456 69 vradio 20 1 0 10 empty empty empty 0 -8 0 10 -262144
-1 -1 7;
#X text 502 70 dim;
#X text 495 91 m7b5;
#X text 509 151 m6;
#X text 502 191 6/9;
#X text 495 232 7/13;
#X text 488 252 7/13b;
#X obj 239 227 display 7 101;
#X obj 70 73 s $root;
#N canvas 810 148 809 451 Root 0;
#X obj 226 54 % 12;
#X obj 226 77 sel 0 1 2 3 4 5 6 7 8 9 10 11;
#X msg 31 129 C;
#X msg 62 129 C#;
#X msg 94 129 D;
#X msg 128 128 D#;
#X msg 162 128 E;
#X msg 196 128 F;
#X msg 232 128 F#;
#X msg 269 128 G;
#X msg 305 128 G#;
#X msg 342 129 A;
#X msg 376 130 Bb;
#X msg 409 130 B;
#X obj 226 29 r $root;
#X obj 409 227 outlet;
#X connect 0 0 1 0;
#X connect 1 0 2 0;
#X connect 1 1 3 0;
#X connect 1 2 4 0;
#X connect 1 3 5 0;
#X connect 1 4 6 0;
#X connect 1 5 7 0;
#X connect 1 6 8 0;
#X connect 1 7 9 0;
#X connect 1 8 10 0;
#X connect 1 9 11 0;
#X connect 1 10 12 0;
#X connect 1 11 13 0;
#X connect 2 0 15 0;
#X connect 3 0 15 0;
#X connect 4 0 15 0;
#X connect 5 0 15 0;
#X connect 6 0 15 0;
#X connect 7 0 15 0;
#X connect 8 0 15 0;
#X connect 9 0 15 0;
#X connect 10 0 15 0;
#X connect 11 0 15 0;
#X connect 12 0 15 0;
#X connect 13 0 15 0;
#X connect 14 0 0 0;
#X restore 239 205 pd Root;
#X text 193 75 less vel sensibility;
#X text 193 133 more vel sensibility;
#X text 495 112 m7/9;
#X text 488 131 m7/11;
#X text 488 170 m9/11;
#X text 495 210 7+/9;
#X connect 0 0 2 0;
#X connect 0 0 15 0;
#X connect 0 1 2 1;
#X connect 2 0 4 0;
#X connect 2 1 3 0;
#X connect 3 0 4 1;
#X connect 4 0 1 0;
#X connect 4 0 1 1;
#X connect 5 0 3 1;
#X connect 6 0 7 0;
#X connect 16 0 14 0;
